<mxfile host="Electron" modified="2023-12-29T15:56:46.170Z" agent="Mozilla/5.0 (Windows NT 10.0; Win64; x64) AppleWebKit/537.36 (KHTML, like Gecko) draw.io/22.0.3 Chrome/114.0.5735.289 Electron/25.8.4 Safari/537.36" etag="Od2VXzBqt1pIDf6iCcNY" version="22.0.3" type="device">
  <diagram name="第 1 页" id="rIkYchXioQR5bGLsHgtp">
    <mxGraphModel dx="1036" dy="606" grid="1" gridSize="10" guides="1" tooltips="1" connect="1" arrows="1" fold="1" page="1" pageScale="1" pageWidth="827" pageHeight="1169" math="0" shadow="0">
      <root>
        <mxCell id="0" />
        <mxCell id="1" parent="0" />
        <mxCell id="hNFWA10LYT_GjPFSmTfn-1" value="" style="rounded=0;whiteSpace=wrap;html=1;strokeColor=none;" parent="1" vertex="1">
          <mxGeometry x="81" y="40" width="449" height="240" as="geometry" />
        </mxCell>
        <mxCell id="hNFWA10LYT_GjPFSmTfn-2" value="&lt;b&gt;&lt;font style=&quot;font-size: 16px;&quot;&gt;MLP&lt;br&gt;Decoder&lt;/font&gt;&lt;/b&gt;" style="rounded=1;whiteSpace=wrap;html=1;fillColor=#fff2cc;strokeColor=#d6b656;" parent="1" vertex="1">
          <mxGeometry x="270" y="120" width="80" height="80" as="geometry" />
        </mxCell>
        <mxCell id="hNFWA10LYT_GjPFSmTfn-3" value="&lt;font style=&quot;font-size: 14px;&quot;&gt;k vectors&lt;/font&gt;" style="text;html=1;align=center;verticalAlign=middle;resizable=0;points=[];autosize=1;strokeColor=none;fillColor=none;" parent="1" vertex="1">
          <mxGeometry x="80.5" y="82" width="80" height="30" as="geometry" />
        </mxCell>
        <mxCell id="hNFWA10LYT_GjPFSmTfn-4" value="" style="rounded=0;whiteSpace=wrap;html=1;fillColor=#fff2cc;strokeColor=#d6b656;" parent="1" vertex="1">
          <mxGeometry x="376" y="190" width="20" height="30" as="geometry" />
        </mxCell>
        <mxCell id="hNFWA10LYT_GjPFSmTfn-5" value="" style="shape=waypoint;sketch=0;fillStyle=solid;size=6;pointerEvents=1;points=[];fillColor=none;resizable=0;rotatable=0;perimeter=centerPerimeter;snapToPoint=1;" parent="1" vertex="1">
          <mxGeometry x="376" y="130" width="20" height="20" as="geometry" />
        </mxCell>
        <mxCell id="hNFWA10LYT_GjPFSmTfn-6" value="" style="shape=waypoint;sketch=0;fillStyle=solid;size=6;pointerEvents=1;points=[];fillColor=none;resizable=0;rotatable=0;perimeter=centerPerimeter;snapToPoint=1;" parent="1" vertex="1">
          <mxGeometry x="376" y="150" width="20" height="20" as="geometry" />
        </mxCell>
        <mxCell id="hNFWA10LYT_GjPFSmTfn-7" value="" style="shape=waypoint;sketch=0;fillStyle=solid;size=6;pointerEvents=1;points=[];fillColor=none;resizable=0;rotatable=0;perimeter=centerPerimeter;snapToPoint=1;" parent="1" vertex="1">
          <mxGeometry x="376" y="170" width="20" height="20" as="geometry" />
        </mxCell>
        <mxCell id="hNFWA10LYT_GjPFSmTfn-8" value="&lt;font style=&quot;font-size: 14px;&quot;&gt;k vectors&lt;/font&gt;" style="text;html=1;align=center;verticalAlign=middle;resizable=0;points=[];autosize=1;strokeColor=none;fillColor=none;" parent="1" vertex="1">
          <mxGeometry x="456" y="145" width="80" height="30" as="geometry" />
        </mxCell>
        <mxCell id="hNFWA10LYT_GjPFSmTfn-9" value="" style="endArrow=classic;startArrow=classic;html=1;rounded=0;" parent="1" edge="1">
          <mxGeometry width="50" height="50" relative="1" as="geometry">
            <mxPoint x="405" y="190" as="sourcePoint" />
            <mxPoint x="405" y="220" as="targetPoint" />
          </mxGeometry>
        </mxCell>
        <mxCell id="hNFWA10LYT_GjPFSmTfn-10" value="&lt;span style=&quot;font-size: 14px;&quot;&gt;MM&#39;&lt;/span&gt;" style="text;html=1;align=center;verticalAlign=middle;resizable=0;points=[];autosize=1;strokeColor=none;fillColor=none;" parent="1" vertex="1">
          <mxGeometry x="406" y="190" width="50" height="30" as="geometry" />
        </mxCell>
        <mxCell id="hNFWA10LYT_GjPFSmTfn-11" value="" style="shape=curlyBracket;whiteSpace=wrap;html=1;rounded=1;labelPosition=left;verticalLabelPosition=middle;align=right;verticalAlign=middle;" parent="1" vertex="1">
          <mxGeometry x="151" y="45" width="20" height="105" as="geometry" />
        </mxCell>
        <mxCell id="hNFWA10LYT_GjPFSmTfn-12" value="" style="group" parent="1" vertex="1" connectable="0">
          <mxGeometry x="220" y="200" width="20" height="40" as="geometry" />
        </mxCell>
        <mxCell id="hNFWA10LYT_GjPFSmTfn-13" value="" style="shape=waypoint;sketch=0;fillStyle=solid;size=6;pointerEvents=1;points=[];fillColor=none;resizable=0;rotatable=0;perimeter=centerPerimeter;snapToPoint=1;container=0;" parent="hNFWA10LYT_GjPFSmTfn-12" vertex="1">
          <mxGeometry width="20" height="20" as="geometry" />
        </mxCell>
        <mxCell id="hNFWA10LYT_GjPFSmTfn-14" value="" style="shape=waypoint;sketch=0;fillStyle=solid;size=6;pointerEvents=1;points=[];fillColor=none;resizable=0;rotatable=0;perimeter=centerPerimeter;snapToPoint=1;container=0;" parent="hNFWA10LYT_GjPFSmTfn-12" vertex="1">
          <mxGeometry y="13.333333333333332" width="20" height="20" as="geometry" />
        </mxCell>
        <mxCell id="hNFWA10LYT_GjPFSmTfn-15" value="" style="shape=waypoint;sketch=0;fillStyle=solid;size=6;pointerEvents=1;points=[];fillColor=none;resizable=0;rotatable=0;perimeter=centerPerimeter;snapToPoint=1;container=0;" parent="hNFWA10LYT_GjPFSmTfn-12" vertex="1">
          <mxGeometry y="26.666666666666664" width="20" height="20" as="geometry" />
        </mxCell>
        <mxCell id="hNFWA10LYT_GjPFSmTfn-16" value="" style="group" parent="1" vertex="1" connectable="0">
          <mxGeometry x="220" y="75" width="20" height="40" as="geometry" />
        </mxCell>
        <mxCell id="hNFWA10LYT_GjPFSmTfn-17" value="" style="shape=waypoint;sketch=0;fillStyle=solid;size=6;pointerEvents=1;points=[];fillColor=none;resizable=0;rotatable=0;perimeter=centerPerimeter;snapToPoint=1;container=0;" parent="hNFWA10LYT_GjPFSmTfn-16" vertex="1">
          <mxGeometry width="20" height="20" as="geometry" />
        </mxCell>
        <mxCell id="hNFWA10LYT_GjPFSmTfn-18" value="" style="shape=waypoint;sketch=0;fillStyle=solid;size=6;pointerEvents=1;points=[];fillColor=none;resizable=0;rotatable=0;perimeter=centerPerimeter;snapToPoint=1;container=0;" parent="hNFWA10LYT_GjPFSmTfn-16" vertex="1">
          <mxGeometry y="13.333333333333332" width="20" height="20" as="geometry" />
        </mxCell>
        <mxCell id="hNFWA10LYT_GjPFSmTfn-19" value="" style="shape=waypoint;sketch=0;fillStyle=solid;size=6;pointerEvents=1;points=[];fillColor=none;resizable=0;rotatable=0;perimeter=centerPerimeter;snapToPoint=1;container=0;" parent="hNFWA10LYT_GjPFSmTfn-16" vertex="1">
          <mxGeometry y="26.666666666666664" width="20" height="20" as="geometry" />
        </mxCell>
        <mxCell id="hNFWA10LYT_GjPFSmTfn-20" value="" style="group" parent="1" vertex="1" connectable="0">
          <mxGeometry x="160.5" y="45" width="79.5" height="30" as="geometry" />
        </mxCell>
        <mxCell id="hNFWA10LYT_GjPFSmTfn-21" value="" style="rounded=0;whiteSpace=wrap;html=1;fillColor=#dae8fc;strokeColor=#6c8ebf;container=0;" parent="hNFWA10LYT_GjPFSmTfn-20" vertex="1">
          <mxGeometry x="59.5" width="20" height="30" as="geometry" />
        </mxCell>
        <mxCell id="hNFWA10LYT_GjPFSmTfn-22" value="" style="endArrow=classic;startArrow=classic;html=1;rounded=0;" parent="hNFWA10LYT_GjPFSmTfn-20" edge="1">
          <mxGeometry width="50" height="50" relative="1" as="geometry">
            <mxPoint x="49.5" y="30" as="sourcePoint" />
            <mxPoint x="49.5" as="targetPoint" />
          </mxGeometry>
        </mxCell>
        <mxCell id="hNFWA10LYT_GjPFSmTfn-23" value="&lt;span style=&quot;font-size: 14px;&quot;&gt;MM&#39;&lt;/span&gt;" style="text;html=1;align=center;verticalAlign=middle;resizable=0;points=[];autosize=1;strokeColor=none;fillColor=none;container=0;" parent="hNFWA10LYT_GjPFSmTfn-20" vertex="1">
          <mxGeometry width="50" height="30" as="geometry" />
        </mxCell>
        <mxCell id="hNFWA10LYT_GjPFSmTfn-24" value="" style="group" parent="1" vertex="1" connectable="0">
          <mxGeometry x="160.5" y="120" width="79.5" height="30" as="geometry" />
        </mxCell>
        <mxCell id="hNFWA10LYT_GjPFSmTfn-25" value="" style="rounded=0;whiteSpace=wrap;html=1;fillColor=#dae8fc;strokeColor=#6c8ebf;container=0;" parent="hNFWA10LYT_GjPFSmTfn-24" vertex="1">
          <mxGeometry x="59.5" width="20" height="30" as="geometry" />
        </mxCell>
        <mxCell id="hNFWA10LYT_GjPFSmTfn-26" value="" style="endArrow=classic;startArrow=classic;html=1;rounded=0;" parent="hNFWA10LYT_GjPFSmTfn-24" edge="1">
          <mxGeometry width="50" height="50" relative="1" as="geometry">
            <mxPoint x="49.5" y="30" as="sourcePoint" />
            <mxPoint x="49.5" as="targetPoint" />
          </mxGeometry>
        </mxCell>
        <mxCell id="hNFWA10LYT_GjPFSmTfn-27" value="&lt;span style=&quot;font-size: 14px;&quot;&gt;MM&#39;&lt;/span&gt;" style="text;html=1;align=center;verticalAlign=middle;resizable=0;points=[];autosize=1;strokeColor=none;fillColor=none;container=0;" parent="hNFWA10LYT_GjPFSmTfn-24" vertex="1">
          <mxGeometry width="50" height="30" as="geometry" />
        </mxCell>
        <mxCell id="hNFWA10LYT_GjPFSmTfn-28" value="" style="group" parent="1" vertex="1" connectable="0">
          <mxGeometry x="160.5" y="170" width="79.5" height="30" as="geometry" />
        </mxCell>
        <mxCell id="hNFWA10LYT_GjPFSmTfn-29" value="" style="rounded=0;whiteSpace=wrap;html=1;fillColor=#dae8fc;strokeColor=#6c8ebf;container=0;" parent="hNFWA10LYT_GjPFSmTfn-28" vertex="1">
          <mxGeometry x="59.5" width="20" height="30" as="geometry" />
        </mxCell>
        <mxCell id="hNFWA10LYT_GjPFSmTfn-30" value="" style="endArrow=classic;startArrow=classic;html=1;rounded=0;" parent="hNFWA10LYT_GjPFSmTfn-28" edge="1">
          <mxGeometry width="50" height="50" relative="1" as="geometry">
            <mxPoint x="49.5" y="30" as="sourcePoint" />
            <mxPoint x="49.5" as="targetPoint" />
          </mxGeometry>
        </mxCell>
        <mxCell id="hNFWA10LYT_GjPFSmTfn-31" value="&lt;span style=&quot;font-size: 14px;&quot;&gt;MM&#39;&lt;/span&gt;" style="text;html=1;align=center;verticalAlign=middle;resizable=0;points=[];autosize=1;strokeColor=none;fillColor=none;container=0;" parent="hNFWA10LYT_GjPFSmTfn-28" vertex="1">
          <mxGeometry width="50" height="30" as="geometry" />
        </mxCell>
        <mxCell id="hNFWA10LYT_GjPFSmTfn-32" value="" style="group" parent="1" vertex="1" connectable="0">
          <mxGeometry x="160.5" y="245" width="79.5" height="30" as="geometry" />
        </mxCell>
        <mxCell id="hNFWA10LYT_GjPFSmTfn-33" value="" style="rounded=0;whiteSpace=wrap;html=1;fillColor=#dae8fc;strokeColor=#6c8ebf;container=0;" parent="hNFWA10LYT_GjPFSmTfn-32" vertex="1">
          <mxGeometry x="59.5" width="20" height="30" as="geometry" />
        </mxCell>
        <mxCell id="hNFWA10LYT_GjPFSmTfn-34" value="" style="endArrow=classic;startArrow=classic;html=1;rounded=0;" parent="hNFWA10LYT_GjPFSmTfn-32" edge="1">
          <mxGeometry width="50" height="50" relative="1" as="geometry">
            <mxPoint x="49.5" y="30" as="sourcePoint" />
            <mxPoint x="49.5" as="targetPoint" />
          </mxGeometry>
        </mxCell>
        <mxCell id="hNFWA10LYT_GjPFSmTfn-35" value="&lt;span style=&quot;font-size: 14px;&quot;&gt;MM&#39;&lt;/span&gt;" style="text;html=1;align=center;verticalAlign=middle;resizable=0;points=[];autosize=1;strokeColor=none;fillColor=none;container=0;" parent="hNFWA10LYT_GjPFSmTfn-32" vertex="1">
          <mxGeometry width="50" height="30" as="geometry" />
        </mxCell>
        <mxCell id="hNFWA10LYT_GjPFSmTfn-36" value="&lt;font style=&quot;font-size: 14px;&quot;&gt;r vectors&lt;/font&gt;" style="text;html=1;align=center;verticalAlign=middle;resizable=0;points=[];autosize=1;strokeColor=none;fillColor=none;" parent="1" vertex="1">
          <mxGeometry x="80.5" y="207" width="80" height="30" as="geometry" />
        </mxCell>
        <mxCell id="hNFWA10LYT_GjPFSmTfn-37" value="" style="shape=curlyBracket;whiteSpace=wrap;html=1;rounded=1;labelPosition=left;verticalLabelPosition=middle;align=right;verticalAlign=middle;" parent="1" vertex="1">
          <mxGeometry x="151" y="170" width="20" height="105" as="geometry" />
        </mxCell>
        <mxCell id="hNFWA10LYT_GjPFSmTfn-38" value="" style="rounded=0;whiteSpace=wrap;html=1;fillColor=#fff2cc;strokeColor=#d6b656;" parent="1" vertex="1">
          <mxGeometry x="376" y="100" width="20" height="30" as="geometry" />
        </mxCell>
        <mxCell id="hNFWA10LYT_GjPFSmTfn-39" value="" style="endArrow=classic;startArrow=classic;html=1;rounded=0;" parent="1" edge="1">
          <mxGeometry width="50" height="50" relative="1" as="geometry">
            <mxPoint x="406" y="100" as="sourcePoint" />
            <mxPoint x="406" y="130" as="targetPoint" />
          </mxGeometry>
        </mxCell>
        <mxCell id="hNFWA10LYT_GjPFSmTfn-40" value="&lt;span style=&quot;font-size: 14px;&quot;&gt;MM&#39;&lt;/span&gt;" style="text;html=1;align=center;verticalAlign=middle;resizable=0;points=[];autosize=1;strokeColor=none;fillColor=none;" parent="1" vertex="1">
          <mxGeometry x="406" y="100" width="50" height="30" as="geometry" />
        </mxCell>
        <mxCell id="hNFWA10LYT_GjPFSmTfn-41" value="" style="shape=curlyBracket;whiteSpace=wrap;html=1;rounded=1;flipH=1;labelPosition=right;verticalLabelPosition=middle;align=left;verticalAlign=middle;" parent="1" vertex="1">
          <mxGeometry x="447" y="100" width="20" height="120" as="geometry" />
        </mxCell>
        <mxCell id="hNFWA10LYT_GjPFSmTfn-42" value="" style="endArrow=classic;html=1;rounded=0;entryX=0;entryY=0;entryDx=0;entryDy=0;" parent="1" source="hNFWA10LYT_GjPFSmTfn-21" target="hNFWA10LYT_GjPFSmTfn-2" edge="1">
          <mxGeometry width="50" height="50" relative="1" as="geometry">
            <mxPoint x="110" y="80" as="sourcePoint" />
            <mxPoint x="270" y="140" as="targetPoint" />
          </mxGeometry>
        </mxCell>
        <mxCell id="hNFWA10LYT_GjPFSmTfn-43" value="" style="endArrow=classic;html=1;rounded=0;entryX=0;entryY=0.25;entryDx=0;entryDy=0;" parent="1" source="hNFWA10LYT_GjPFSmTfn-25" target="hNFWA10LYT_GjPFSmTfn-2" edge="1">
          <mxGeometry width="50" height="50" relative="1" as="geometry">
            <mxPoint x="250" y="70" as="sourcePoint" />
            <mxPoint x="300" y="160" as="targetPoint" />
          </mxGeometry>
        </mxCell>
        <mxCell id="hNFWA10LYT_GjPFSmTfn-44" value="" style="endArrow=classic;html=1;rounded=0;entryX=0;entryY=0.75;entryDx=0;entryDy=0;" parent="1" source="hNFWA10LYT_GjPFSmTfn-29" target="hNFWA10LYT_GjPFSmTfn-2" edge="1">
          <mxGeometry width="50" height="50" relative="1" as="geometry">
            <mxPoint x="250" y="148" as="sourcePoint" />
            <mxPoint x="276" y="157" as="targetPoint" />
          </mxGeometry>
        </mxCell>
        <mxCell id="hNFWA10LYT_GjPFSmTfn-45" value="" style="endArrow=classic;html=1;rounded=0;entryX=0;entryY=1;entryDx=0;entryDy=0;" parent="1" source="hNFWA10LYT_GjPFSmTfn-33" target="hNFWA10LYT_GjPFSmTfn-2" edge="1">
          <mxGeometry width="50" height="50" relative="1" as="geometry">
            <mxPoint x="260" y="158" as="sourcePoint" />
            <mxPoint x="286" y="167" as="targetPoint" />
          </mxGeometry>
        </mxCell>
        <mxCell id="hNFWA10LYT_GjPFSmTfn-46" value="" style="endArrow=classic;html=1;rounded=0;" parent="1" source="hNFWA10LYT_GjPFSmTfn-2" target="hNFWA10LYT_GjPFSmTfn-38" edge="1">
          <mxGeometry width="50" height="50" relative="1" as="geometry">
            <mxPoint x="270" y="168" as="sourcePoint" />
            <mxPoint x="296" y="177" as="targetPoint" />
          </mxGeometry>
        </mxCell>
        <mxCell id="hNFWA10LYT_GjPFSmTfn-47" value="" style="endArrow=classic;html=1;rounded=0;" parent="1" source="hNFWA10LYT_GjPFSmTfn-2" target="hNFWA10LYT_GjPFSmTfn-4" edge="1">
          <mxGeometry width="50" height="50" relative="1" as="geometry">
            <mxPoint x="343" y="155" as="sourcePoint" />
            <mxPoint x="386" y="131" as="targetPoint" />
          </mxGeometry>
        </mxCell>
      </root>
    </mxGraphModel>
  </diagram>
</mxfile>
